<svg xmlns="http://www.w3.org/2000/svg" fill="none" viewBox="0 0 180 26">
  <path fill="#003296" d="M13.25 0c2.48 0 4.96.53 7.1 1.57V7.8a9.42 9.42 0 0 0-5.98-2.03c-3.88 0-7.73 2.17-7.73 7.59 0 4.84 3.85 6.83 7.66 6.83 2.51 0 4.82-.78 6.22-2.17v6.41A16.26 16.26 0 0 1 13.39 26C6.68 26 0 22.26 0 13.36 0 3.96 6.64 0 13.25 0Zm21.63 5.7H30.9v4.6l3.98.03c1.72 0 2.7-.9 2.7-2.32s-.98-2.31-2.7-2.31Zm.39 9.4h-4.4v5.2h4.4c1.96 0 3.25-.64 3.25-2.6s-1.3-2.6-3.25-2.6Zm.2-14.57c5.36 0 8.57 2 8.57 6.3 0 2.75-1.3 4.57-3.63 5.42 2.62.79 4.61 2.7 4.61 6.16 0 5.67-5.31 7.06-9.96 7.06H24.43V.53h11.05ZM57.99 12h3.77V6.23H58c-2.2 0-3.46.96-3.46 2.89C54.54 11.04 55.8 12 58 12ZM46.35 25.47l6.6-9.02c-2.93-1.1-5.06-3.41-5.06-7.33 0-6.24 4.72-8.59 10.03-8.59h10.31v24.94h-6.47v-8.12H59.5l-5.76 8.12h-7.38Zm35.09.53c-2.69 0-5.73-.4-9.26-1.64v-6.23a18.18 18.18 0 0 0 8.74 2c2.3 0 4.33-.58 4.33-2.5 0-1.64-1.29-2.1-3.25-2.1h-5.8l.04-5.7 5.38.04c1.71 0 2.69-.57 2.69-1.82 0-1.43-1.26-2.17-4.02-2.17-1.96-.04-4.54.42-7.69 2V1.63C75.6.39 78.47 0 80.81 0c6.05 0 9.97 2.24 9.97 6.91 0 2.6-1.4 4.45-3.85 5.3 2.73.86 4.83 2.9 4.83 6.45 0 5.67-5.32 7.34-10.32 7.34ZM102 19.77h3.53c1.95 0 3.7-.6 3.7-2.85s-1.75-2.85-3.7-2.85H102v5.7Zm-6.47 5.7V.53H102v7.84h3.21c6.05.04 10.66 2 10.66 8.55 0 6.55-4.61 8.55-10.66 8.55h-9.68Zm45.92-19.42c-4.23 0-6.47 2.96-6.47 6.95s2.24 6.94 6.47 6.94c4.23 0 6.47-2.95 6.47-6.94s-2.24-6.95-6.47-6.95Zm0-6.05c8.74 0 13.1 6.05 13.1 13 0 6.94-4.36 13-13.1 13-8.74 0-13.1-6.06-13.1-13 0-6.95 4.36-13 13.1-13Zm16.53 25.47V.53h6.12l9.57 14.32c-.1-1.17-.14-2.74-.14-4.13V.53H180v24.94h-6.12l-9.57-14.29c.1 1.18.13 2.75.13 4.1v10.19h-6.46Z"/>
  <path fill="#FF413C" d="M130.22 7.85s3.98 2.56 5.9 3.93c.84.73.92 1.9-.1 2.6-2.06 1.41-4.09 2.73-6.22 4.16a67.17 67.17 0 0 1-4.64 2.93c-2.33 1.3-4.03.43-4.1-2.22-.1-4.14-.08-8.28.01-12.42.06-2.56 1.7-3.67 3.84-2.33l5.3 3.35Z"/>
</svg>
